# xmcd
#
# Track frame offsets: 
#        150
#        16368
#        32048
#        47976
#        60278
#        77450
#        94123
#        109227
#        120524
#        132267
#        144077
#        161902
#        176925
#        197021
#        207793
#        225725
#        237543
#        251216
#        264751
#        279562
#
# Disc length: 3901 seconds
#
# Revision: 0
# Processed by: cddbd v1.5.2PL0 Copyright (c) Steve Scherf et al.
# Submitted via: ExactAudioCopy v0.99pb5
#
DISCID=160f3b14
DTITLE=Various Artist - 100 Country Hits [CD2]
DYEAR=2009
DGENRE=Country
TTITLE0=The Charlie Daniels band - The devil went to Georgia
TTITLE1=Nitty Gritty dirt band - An American dream
TTITLE2=Willie Nelson - Always on my mind
TTITLE3=Patsy Cline - Crazy
TTITLE4=Dr. Hook and The medicine show - Sylvia's mother
TTITLE5=Anne Murray - You needed me
TTITLE6=Don Williams - I recal a Gypsy woman
TTITLE7=Donna Fargo - The happiest girl in the whole U.S.A.
TTITLE8=Tennessee Ernie Ford - Sixteen tons
TTITLE9=Sutherland brothers - Arms of Mary
TTITLE10=Lee Greenwood - The wind beneath my wings
TTITLE11=Nanci Griffith - I knew love
TTITLE12=john Haitt - Georgie Rae
TTITLE13=The Kendalls - Heaven's just a sin away
TTITLE14=Bobby Goldboro - Honey
TTITLE15=Wanda Jackson - Right or wrong
TTITLE16=Merle Haggard - that's the way love goes
TTITLE17=Loretta lynn - Coal miner's daughter
TTITLE18=Jerry Reed - She got the goldmine (Igot the shaft)
TTITLE19=Elvis Presley - There goes my everything
EXTD=
EXTT0=
EXTT1=
EXTT2=
EXTT3=
EXTT4=
EXTT5=
EXTT6=
EXTT7=
EXTT8=
EXTT9=
EXTT10=
EXTT11=
EXTT12=
EXTT13=
EXTT14=
EXTT15=
EXTT16=
EXTT17=
EXTT18=
EXTT19=
PLAYORDER=
